# xmcd
#
# Track frame offsets:
# 150
# 34277
# 79564
# 109301
# 123035
# 154545
# 170454
# 179621
# 191708
# 211440
# 239357
#
# Disc length: 4268 seconds
#
#
# Revision: 0
# Processed by: cddbd v1.5PL3 Copyright (c) Steve Scherf et al.
# Submitted via: FreeRIP 2.60 
#
DISCID=9010aa0b
DTITLE=Tom Waits - Blue
DYEAR=1900
DGENRE=Jazz
TTITLE0=Tom Trauberts Blues
TTITLE1=Small Change - Big Spender
TTITLE2=Romeo is bleeding
TTITLE3=Arnie´s back in Town
TTITLE4=Jitterburg Boy - Better off without a wife
TTITLE5=I wish I was in New Orleans
TTITLE6=When the Saints
TTITLE7=Since I fell for You
TTITLE8=Red Shoes
TTITLE9=x-Mas Card from a Hooker in Minneapolis
TTITLE10=Borma Shave
EXTD=
EXTT0=
EXTT1=
EXTT2=
EXTT3=
EXTT4=
EXTT5=
EXTT6=
EXTT7=
EXTT8=
EXTT9=
EXTT10=
PLAYORDER=
